<svg width="24" height="24" viewBox="0 0 24 24" fill="none" xmlns="http://www.w3.org/2000/svg">
<path d="M8.13542 15.281C12.5294 15.281 16.0915 11.5116 16.0915 6.86188C16.0915 6.14839 16.018 5.5929 15.8601 4.93131C15.777 4.58287 16.1367 4.37505 16.3941 4.58287C18.2992 6.12105 19.5 8.34933 19.5 11.0809C19.5 15.7306 15.9379 19.5 11.5439 19.5C8.51694 19.5 5.88479 17.7112 4.53997 15.0781C4.38604 14.7767 4.70584 14.4686 5.00341 14.6036C5.96462 15.0396 7.02338 15.281 8.13542 15.281Z" fill="url(#paint0_linear_156_540)"/>
<path d="M8.13542 15.281C12.5294 15.281 16.0915 11.5116 16.0915 6.86188C16.0915 6.14839 16.018 5.5929 15.8601 4.93131C15.777 4.58287 16.1367 4.37505 16.3941 4.58287C18.2992 6.12105 19.5 8.34933 19.5 11.0809C19.5 15.7306 15.9379 19.5 11.5439 19.5C8.51694 19.5 5.88479 17.7112 4.53997 15.0781C4.38604 14.7767 4.70584 14.4686 5.00341 14.6036C5.96462 15.0396 7.02338 15.281 8.13542 15.281Z" fill="url(#paint1_radial_156_540)"/>
<path d="M8.13542 15.281C12.5294 15.281 16.0915 11.5116 16.0915 6.86188C16.0915 6.14839 16.018 5.5929 15.8601 4.93131C15.777 4.58287 16.1367 4.37505 16.3941 4.58287C18.2992 6.12105 19.5 8.34933 19.5 11.0809C19.5 15.7306 15.9379 19.5 11.5439 19.5C8.51694 19.5 5.88479 17.7112 4.53997 15.0781C4.38604 14.7767 4.70584 14.4686 5.00341 14.6036C5.96462 15.0396 7.02338 15.281 8.13542 15.281Z" fill="url(#paint2_radial_156_540)"/>
<path d="M8.13542 15.281C12.5294 15.281 16.0915 11.5116 16.0915 6.86188C16.0915 6.14839 16.018 5.5929 15.8601 4.93131C15.777 4.58287 16.1367 4.37505 16.3941 4.58287C18.2992 6.12105 19.5 8.34933 19.5 11.0809C19.5 15.7306 15.9379 19.5 11.5439 19.5C8.51694 19.5 5.88479 17.7112 4.53997 15.0781C4.38604 14.7767 4.70584 14.4686 5.00341 14.6036C5.96462 15.0396 7.02338 15.281 8.13542 15.281Z" fill="url(#paint3_radial_156_540)"/>
<defs>
<linearGradient id="paint0_linear_156_540" x1="6.96959" y1="18.6901" x2="19.6752" y2="7.28299" gradientUnits="userSpaceOnUse">
<stop stop-color="#F9B156"/>
<stop offset="1" stop-color="#F0C651"/>
</linearGradient>
<radialGradient id="paint1_radial_156_540" cx="0" cy="0" r="1" gradientTransform="matrix(12.0192 -6.97882 6.97882 13.459 7.48077 13.9902)" gradientUnits="userSpaceOnUse">
<stop offset="0.768272" stop-color="#FFFF80" stop-opacity="0"/>
<stop offset="0.985208" stop-color="#FFFF80"/>
</radialGradient>
<radialGradient id="paint2_radial_156_540" cx="0" cy="0" r="1" gradientTransform="matrix(12.1706 6.92416 -12.2448 24.1008 13.3117 9.72221)" gradientUnits="userSpaceOnUse">
<stop offset="0.0688851" stop-color="#BA5A32"/>
<stop offset="0.215687" stop-color="#BA5A32" stop-opacity="0"/>
</radialGradient>
<radialGradient id="paint3_radial_156_540" cx="0" cy="0" r="1" gradientTransform="matrix(-5.46014 14.4687 -11.0437 -4.66687 13.4823 7.00465)" gradientUnits="userSpaceOnUse">
<stop offset="0.745101" stop-color="#BA5A32" stop-opacity="0"/>
<stop offset="0.903752" stop-color="#BA5A32"/>
</radialGradient>
</defs>
</svg>
